<svg height="512" viewBox="0 0 135.46666 135.46667" width="512" xmlns="http://www.w3.org/2000/svg"><path d="m0 .00007h135.46667v135.46667h-135.46667z" fill="#00d455" stroke-linecap="round" stroke-linejoin="round" stroke-width=".264582"/><path d="m102.85183 345.9644-4.963691 23.14464q-1.558366 7.21466.461739 7.21466 1.038911 0 3.636192-1.61609 2.42412-1.50065 4.6751-3.92477 1.03891 0 2.07782 1.09663.92348 1.03891 1.3275 2.19325-3.92478 5.13684-9.81194 8.0227-5.714013 2.82815-12.062915 2.82815-4.386513 0-5.771728-3.86706-.923477-2.53956.808042-10.90856l5.194555-24.29898q.750325-3.57847.750325-4.84825 0-2.30869-2.135539-2.36641h-18.584967l-.346303 1.96239q-1.385215 7.84955-2.885865 14.89106l-2.654995 12.92867q-1.616084 8.08042-3.116733 13.10182-1.558367 5.25227-4.097928 10.04281-2.424126 4.61738-3.289885 5.88716l-3.463037 5.02141q-3.116733 4.32879-7.560964 6.57977-4.386514 2.25097-8.830745 2.25097-6.637488 0-10.100525-2.42412-3.40532-2.36641-3.40532-5.25228 0-2.0201 1.442932-3.75162 1.385215-1.6738 4.097927-1.6738 2.020105 0 3.751624 1.3275 1.90467 1.44293 2.885864 2.94358.115435.11543.404021.57717.05772.11543.173152.28859.115435.23087.173152.28858.230869.23087.404021.46174.173152.23087.404021.46174l.404021.40402q.115435.17315.577173.28859.173152.0577.63489.17315.461738.11543.750325.11543 1.558366 0 3.463037-1.26978 1.673801-1.09663 3.001299-3.0013 1.962387-3.0013 3.232168-7.56096 1.26978-4.55967 1.731518-7.90727l1.269781-9.92737.981193-8.77303q.404021-3.46304 4.848252-28.45462h-9.696504q-.692607 0-.692607-.23087 0-1.50065.461738-3.0013.404021-1.84695 3.289886-1.96239l7.84955-.40402q1.731519-9.11933 4.386514-13.90986 2.539561-4.61739 7.676399-10.27368 3.059016-3.3476 7.44553-5.48314 4.328797-2.13554 8.94618-2.13554 5.021403 0 10.042807 1.61608 4.6751 1.50065 9.003893 4.55967 4.15565 2.94358 4.15565 6.40662 0 2.82814-1.78924 5.42542-1.73152 2.48184-5.425422 2.48184-2.13554 0-3.693907-.86576-1.673801-.92347-2.424126-2.30869-.923476-1.6738-1.327497-2.94358-.692608-2.19326-.865759-3.23217-.634891-2.59727-1.904671-3.86705-1.327497-1.3275-4.444231-1.3275-2.943581 0-5.252273 2.13554-2.366409 2.19325-4.213362 5.30999-2.654995 4.73281-4.155644 11.71661l-1.385215 6.6952h20.085615q8.71531-.80804 13.448132-.80804 2.3664 0 2.3664 2.48184 0 .75033-.28858 2.59728-.23087 1.44293-.9812 4.27108-.92347 3.63619-1.09662 4.38651z" fill="#fff" transform="translate(0 -288.53332)"/></svg>